<?xml version="1.0" encoding="UTF-8"?>
<svg version="1.1" xmlns="http://www.w3.org/2000/svg" width="75" height="75">
<path d="M0 0 C8.08638156 5.65894995 15.01497839 13.68502456 16.83203125 23.64453125 C17.64727445 36.50131752 16.80945986 46.45391823 8.4609375 56.83203125 C1.84903064 64.18916503 -5.90980818 69.24770402 -15.92578125 69.8828125 C-28.45755488 70.20152641 -37.58681072 68.25518405 -47.16796875 59.64453125 C-55.13268904 51.80886893 -58.38131333 43.59470839 -58.48046875 32.51953125 C-58.50280008 20.80923117 -54.74820827 12.33315119 -46.5078125 3.95703125 C-33.70069773 -7.71232162 -14.61065284 -9.13494871 0 0 Z " fill="#151414" transform="translate(58.16796875,5.35546875)"/>
<path d="M0 0 C-0.556875 0.268125 -1.11375 0.53625 -1.6875 0.8125 C-4.19712523 2.10122647 -6.59334236 3.52926478 -9 5 C-5.29909479 8.9252025 -1.45040344 11.94580156 3 15 C3.02578125 14.38511719 3.0515625 13.77023438 3.078125 13.13671875 C3.13484375 12.32847656 3.1915625 11.52023438 3.25 10.6875 C3.29640625 9.88699219 3.3428125 9.08648437 3.390625 8.26171875 C4 6 4 6 8 3 C8.99 6.3 9.98 9.6 11 13 C11.55429687 12.4225 12.10859375 11.845 12.6796875 11.25 C13.40414062 10.5075 14.12859375 9.765 14.875 9 C15.59429687 8.2575 16.31359375 7.515 17.0546875 6.75 C19 5 19 5 21 5 C20.39363767 10.76044212 18.24341721 15.72014369 16 21 C16.53109375 20.83628906 17.0621875 20.67257813 17.609375 20.50390625 C20.53876764 19.88643623 23.25822936 19.90498075 26.25 19.9375 C27.86648437 19.95103516 27.86648437 19.95103516 29.515625 19.96484375 C30.33546875 19.97644531 31.1553125 19.98804687 32 20 C29.14597323 22.90281355 26.2153343 25.49918443 23 28 C25.97 29.65 28.94 31.3 32 33 C32 33.33 32 33.66 32 34 C26.72 34 21.44 34 16 34 C16.804375 35.52625 17.60875 37.0525 18.4375 38.625 C20.3532956 42.43494378 21.66019111 45.69575407 22 50 C17.63944901 48.01266924 14.57416555 45.16176183 11 42 C10.01 45.96 9.02 49.92 8 54 C7.34 54 6.68 54 6 54 C5.01 50.37 4.02 46.74 3 43 C0.07043185 43 -0.88500839 44.54052248 -3 46.5 C-6.77777778 50 -6.77777778 50 -9 50 C-8.36843005 44.94744036 -6.86540627 40.70406799 -5 36 C-9.62 36.33 -14.24 36.66 -19 37 C-19 36.34 -19 35.68 -19 35 C-17.1015625 33.4921875 -17.1015625 33.4921875 -14.625 31.875 C-13.81289063 31.33617187 -13.00078125 30.79734375 -12.1640625 30.2421875 C-10 29 -10 29 -8 29 C-8 28.34 -8 27.68 -8 27 C-8.70125 26.7525 -9.4025 26.505 -10.125 26.25 C-13.38087894 24.83440046 -16.12368559 23.07362202 -19 21 C-19 20.67 -19 20.34 -19 20 C-14.38 20 -9.76 20 -5 20 C-7.31 15.71 -9.62 11.42 -12 7 C-12.94875 8.155 -13.8975 9.31 -14.875 10.5 C-16.4921875 12.46875 -16.4921875 12.46875 -18 14 C-18.66 14 -19.32 14 -20 14 C-18.64848129 9.83645043 -16.93130608 7.65196884 -13.625 4.8125 C-12.85414062 4.13832031 -12.08328125 3.46414062 -11.2890625 2.76953125 C-7.17803309 -0.40844882 -5.10777117 -1.41882532 0 0 Z " fill="#0C0C0C" transform="translate(31,10)"/>
<path d="M0 0 C8.08638156 5.65894995 15.01497839 13.68502456 16.83203125 23.64453125 C17.64727445 36.50131752 16.80945986 46.45391823 8.4609375 56.83203125 C1.84903064 64.18916503 -5.90980818 69.24770402 -15.92578125 69.8828125 C-28.45755488 70.20152641 -37.58681072 68.25518405 -47.16796875 59.64453125 C-55.13268904 51.80886893 -58.38131333 43.59470839 -58.48046875 32.51953125 C-58.50280008 20.80923117 -54.74820827 12.33315119 -46.5078125 3.95703125 C-33.70069773 -7.71232162 -14.61065284 -9.13494871 0 0 Z M-46.41796875 11.95703125 C-52.54032663 19.61834248 -54.22089421 26.91448513 -53.16796875 36.64453125 C-51.06409733 47.4060606 -45.66352895 53.95464761 -37.16796875 60.64453125 C-29.48460229 65.22499971 -20.81406282 65.74383288 -12.10546875 64.01953125 C-3.28275216 61.4580974 4.42854271 54.70073881 8.89453125 46.75390625 C12.42337042 38.9497427 13.52396501 29.59948012 10.73828125 21.44140625 C6.05119366 11.5187421 -0.10031869 5.08395627 -10.16796875 0.64453125 C-13.09131848 -0.27325166 -13.09131848 -0.27325166 -16.16796875 -0.35546875 C-16.91820312 -0.40574219 -17.6684375 -0.45601563 -18.44140625 -0.5078125 C-30.13452256 -0.95754774 -38.55433219 3.4627271 -46.41796875 11.95703125 Z " fill="#050505" transform="translate(58.16796875,5.35546875)"/>
<path d="M0 0 C3.05001831 3.66002197 7 9.07851471 7 14 C0.565 14.495 0.565 14.495 -6 15 C-3.525 16.423125 -3.525 16.423125 -1 17.875 C1.8125 19.4921875 1.8125 19.4921875 4 21 C4 21.66 4 22.32 4 23 C2.1015625 24.5078125 2.1015625 24.5078125 -0.375 26.125 C-1.18710937 26.66382812 -1.99921875 27.20265625 -2.8359375 27.7578125 C-5 29 -5 29 -7 29 C-7 29.66 -7 30.32 -7 31 C-2.05 30.34 2.9 29.68 8 29 C7.525625 30.32 7.05125 31.64 6.5625 33 C5.0974342 37.36064395 4.41575073 41.42674201 4 46 C10.01339937 47.95928381 15.69632197 49.41632611 22 50 C22 50.33 22 50.66 22 51 C13.4061506 51.5977175 6.8685823 51.56771444 0 46 C-6.66928615 39.95000471 -11.23807611 33.27054603 -12.33984375 24.203125 C-12.54843942 18.16219445 -11.74679772 13.39549552 -9 8 C-7.125 6.875 -7.125 6.875 -5 6 C-3.18787712 4.09468223 -1.62368375 2.07470701 0 0 Z " fill="#1C1C1C" transform="translate(19,16)"/>
<path d="M0 0 C7.56867392 5.64486383 14.08930262 12.2434849 16.6484375 21.5546875 C17.73391346 30.57999323 16.1996158 38.64857539 12.0234375 46.6796875 C5.78287818 54.23404878 -1.28625029 60.58686902 -11.3515625 61.5546875 C-21.17842632 62.24340787 -28.75720344 60.46933475 -36.5 54.22265625 C-43.88521339 47.56973195 -47.51874073 40.81815841 -48.66015625 30.86328125 C-49.07617021 21.59751586 -46.34981393 14.75241436 -40.7109375 7.421875 C-30.77511437 -3.30324249 -13.10810403 -8.0564759 0 0 Z M-40.3515625 10.5546875 C-45.77600198 17.8845958 -47.29004971 25.62077683 -46.3515625 34.5546875 C-44.35746782 43.40097328 -38.66065456 51.01840298 -31.12890625 56.03515625 C-23.72701388 59.8675379 -15.82571411 60.8890622 -7.69140625 58.90625 C1.14127153 55.71174212 7.96822931 49.82953966 12.58203125 41.6328125 C15.21917369 34.02084091 15.38976907 22.71493461 11.8828125 15.38671875 C6.20501633 6.95986305 -0.16107213 0.64992851 -10.3515625 -1.4453125 C-22.88705317 -2.66682197 -31.87995355 1.32080699 -40.3515625 10.5546875 Z " fill="#DDDCDC" transform="translate(53.3515625,8.4453125)"/>
<path d="M0 0 C9.01563594 3.27078885 15.13633015 8.78533942 19.33203125 17.3515625 C18.34203125 17.3515625 17.35203125 17.3515625 16.33203125 17.3515625 C14.67167854 15.40784293 13.33907172 13.33020769 11.9296875 11.19921875 C10.47058178 9.25079108 10.47058178 9.25079108 8.390625 8.47265625 C4.22362163 8.2275384 1.55877018 10.84329344 -1.41796875 13.4765625 C-2.49046875 14.4253125 -3.56296875 15.3740625 -4.66796875 16.3515625 C-6.15296875 11.8965625 -6.15296875 11.8965625 -7.66796875 7.3515625 C-8.65796875 7.6815625 -9.64796875 8.0115625 -10.66796875 8.3515625 C-10.99796875 11.3215625 -11.32796875 14.2915625 -11.66796875 17.3515625 C-15.03543685 15.66782845 -17.50381066 14.04074686 -20.41796875 11.7265625 C-21.2171875 11.09492188 -22.01640625 10.46328125 -22.83984375 9.8125 C-23.443125 9.33039062 -24.04640625 8.84828125 -24.66796875 8.3515625 C-21.80285449 5.3395193 -19.64040043 3.67570639 -15.66796875 2.3515625 C-15.66796875 1.6915625 -15.66796875 1.0315625 -15.66796875 0.3515625 C-11.04712243 -1.95886066 -4.88473535 -1.1872124 0 0 Z " fill="#2F2E2D" transform="translate(45.66796875,7.6484375)"/>
<path d="M0 0 C2 2 2 2 2.3125 5.5 C2.07687556 14.13956265 -0.90161786 21.92508188 -7.046875 28.03515625 C-15.26640095 35.63408041 -22.25260157 38.37833431 -33.41796875 38.2109375 C-42.9153356 37.43505579 -50.02421464 32.45483248 -56.3125 25.5625 C-61.57067867 19.00052226 -62.44387749 13.17063375 -62 5 C-61.67 5 -61.34 5 -61 5 C-60.85304688 5.76183594 -60.70609375 6.52367187 -60.5546875 7.30859375 C-58.38420087 17.30031667 -54.70252317 25.14253248 -46 31 C-38.31339041 35.12121572 -30.89998209 36.4771807 -22.36328125 34.33984375 C-13.81675217 31.31649273 -7.14567722 25.84811247 -2.96484375 17.75390625 C-0.96659585 12.05040517 -0.52869594 5.98925694 0 0 Z " fill="#EBEAEA" transform="translate(68,32)"/>
<path d="M0 0 C3.33434242 1.4031723 5.05526479 2.96989805 7.1875 5.875 C7.95126953 6.89207031 7.95126953 6.89207031 8.73046875 7.9296875 C10 10 10 10 11 14 C5.39 14.66 -0.22 15.32 -6 16 C-4.3967597 10.35048657 -2.85403778 5.16444932 0 0 Z " fill="#F8F8F8" transform="translate(53,15)"/>
<path d="M0 0 C5.28 0 10.56 0 16 0 C13.73748903 7.91878841 13.73748903 7.91878841 10.5 11.4375 C9.8915625 12.11683594 9.283125 12.79617187 8.65625 13.49609375 C7 15 7 15 5 15 C4.16260219 12.8765984 3.33019717 10.7512272 2.5 8.625 C1.80390625 6.84996094 1.80390625 6.84996094 1.09375 5.0390625 C0 2 0 2 0 0 Z " fill="#F9F9F9" transform="translate(48,45)"/>
<path d="M0 0 C-0.99 4.95 -1.98 9.9 -3 15 C-6.3674681 13.31626595 -8.83584191 11.68918436 -11.75 9.375 C-12.54921875 8.74335938 -13.3484375 8.11171875 -14.171875 7.4609375 C-15.07679687 6.73777344 -15.07679687 6.73777344 -16 6 C-10.95061384 0.66888843 -7.40988521 0 0 0 Z " fill="#F7F7F7" transform="translate(37,10)"/>
<path d="M0 0 C0.33 0.66 0.66 1.32 1 2 C0.26821134 4.07196631 -0.55899003 6.1108552 -1.4375 8.125 C-1.91058594 9.22070312 -2.38367187 10.31640625 -2.87109375 11.4453125 C-3.24363281 12.28835937 -3.61617187 13.13140625 -4 14 C-7 14 -7 14 -8.5703125 12.64453125 C-9.08335938 12.03996094 -9.59640625 11.43539062 -10.125 10.8125 C-10.64320312 10.22082031 -11.16140625 9.62914062 -11.6953125 9.01953125 C-13 7 -13 7 -14 2 C-7.07 1.01 -7.07 1.01 0 0 Z " fill="#F5F5F5" transform="translate(26,45)"/>
<path d="M0 0 C3.05001831 3.66002197 7 9.07851471 7 14 C1.87416389 14.10251672 -2.94997778 14.03590199 -8 13 C-6.63589551 7.40717158 -3.84616474 4.08806189 0 0 Z " fill="#F9F9F9" transform="translate(19,16)"/>
<path d="M0 0 C2.1446143 2.1446143 2.44564603 3.01739998 3.125 5.875 C3.29257812 6.55304687 3.46015625 7.23109375 3.6328125 7.9296875 C4 10 4 10 4 14 C2.41590006 13.88512252 0.83271037 13.75765492 -0.75 13.625 C-2.07257812 13.52058594 -2.07257812 13.52058594 -3.421875 13.4140625 C-5.99066382 13.00149945 -7.75841015 12.28839043 -10 11 C-8.55218207 7.55571735 -6.72305391 5.63869038 -3.875 3.25 C-3.15054687 2.63640625 -2.42609375 2.0228125 -1.6796875 1.390625 C-0.84824219 0.70226563 -0.84824219 0.70226563 0 0 Z " fill="#F6F6F6" transform="translate(33,51)"/>
<path d="M0 0 C3.29680965 0.65784963 5.84117922 1.89420573 8.75 3.5625 C9.94882812 4.24505859 9.94882812 4.24505859 11.171875 4.94140625 C11.77515625 5.29074219 12.3784375 5.64007813 13 6 C13 6.66 13 7.32 13 8 C11.21601386 9.28006797 9.37146094 10.47660351 7.5 11.625 C6.4790625 12.25664063 5.458125 12.88828125 4.40625 13.5390625 C3.6121875 14.02117188 2.818125 14.50328125 2 15 C0 13 0 13 -0.1953125 9.9609375 C-0.17210937 8.77757812 -0.14890625 7.59421875 -0.125 6.375 C-0.10695313 5.18648437 -0.08890625 3.99796875 -0.0703125 2.7734375 C-0.04710937 1.85820313 -0.02390625 0.94296875 0 0 Z " fill="#F9F9F9" transform="translate(10,31)"/>
<path d="M0 0 C1.27310312 0.93441535 2.543388 1.87267111 3.8125 2.8125 C4.52019531 3.33457031 5.22789063 3.85664062 5.95703125 4.39453125 C7.79961207 5.84252498 9.46364869 7.23101505 11 9 C11 9.66 11 10.32 11 11 C6.36224637 12.88654385 3.04994191 14.21225675 -2 14 C-1.85795259 12.41632253 -1.71119847 10.83306682 -1.5625 9.25 C-1.48128906 8.36828125 -1.40007813 7.4865625 -1.31640625 6.578125 C-1.03761535 4.30649548 -0.61209423 2.20148177 0 0 Z " fill="#F6F6F6" transform="translate(41,51)"/>
<path d="M0 0 C5.65394631 -0.34615998 9.03006806 0.56574762 14 3 C10.6189962 7.13621084 7.33409466 10.81316569 3 14 C2.49528803 12.23050388 1.99639315 10.45934777 1.5 8.6875 C1.2215625 7.70136719 0.943125 6.71523438 0.65625 5.69921875 C0 3 0 3 0 0 Z " fill="#F5F5F5" transform="translate(38,10)"/>
<path d="M0 0 C0 4.29 0 8.58 0 13 C-4.3785374 11.24858504 -7.97072742 9.37016034 -12 7 C-8.51013292 3.25162425 -5.32108894 0 0 0 Z " fill="#F7F7F7" transform="translate(65,31)"/>
<path d="M0 0 C6.70043235 2.33817171 11.0907727 6.74308285 14.66015625 12.83203125 C18.43664337 20.6900699 18.43664337 20.6900699 17 25 C16.78807905 26.58025005 16.60076629 28.16398461 16.4375 29.75 C16.35371094 30.54921875 16.26992187 31.3484375 16.18359375 32.171875 C16.09271484 33.07679687 16.09271484 33.07679687 16 34 C15.67 34 15.34 34 15 34 C14.96261719 33.154375 14.92523438 32.30875 14.88671875 31.4375 C14.17608465 19.1755783 11.91584761 12.66419062 3 4 C2.01 3.34 1.02 2.68 0 2 C0 1.34 0 0.68 0 0 Z " fill="#F1F1F1" transform="translate(52,9)"/>
<path d="M0 0 C0.99 0.33 1.98 0.66 3 1 C4.50923576 5.03515108 4.18393509 9.37562699 4.1875 13.625 C4.19974609 14.40101562 4.21199219 15.17703125 4.22460938 15.9765625 C4.22984167 17.98576362 4.12248735 19.99452914 4 22 C3.34 22.66 2.68 23.32 2 24 C1.67 22.68 1.34 21.36 1 20 C-7.415 20.495 -7.415 20.495 -16 21 C-16 20.34 -16 19.68 -16 19 C-10.06 19 -4.12 19 2 19 C2 14.71 2 10.42 2 6 C-0.31 5.67 -2.62 5.34 -5 5 C-5 4.67 -5 4.34 -5 4 C-3.02 4 -1.04 4 1 4 C0.67 2.68 0.34 1.36 0 0 Z " fill="#3C3B3A" transform="translate(63,25)"/>
<path d="M0 0 C0.99 0.33 1.98 0.66 3 1 C2.34 2.32 1.68 3.64 1 5 C2.98 5 4.96 5 7 5 C7 5.33 7 5.66 7 6 C4.69 6.33 2.38 6.66 0 7 C0.14194764 9.06277107 0.28872216 11.12521031 0.4375 13.1875 C0.55931641 14.91033203 0.55931641 14.91033203 0.68359375 16.66796875 C0.95403812 19.51598171 1.37521747 22.21210482 2 25 C1.01 25 0.02 25 -1 25 C-3.99714439 18.06910359 -4.1453196 10.37086462 -1.5 3.3125 C-1.005 2.219375 -0.51 1.12625 0 0 Z " fill="#353434" transform="translate(10,24)"/>
<path d="M0 0 C0.33 0 0.66 0 1 0 C1.14695312 0.76183594 1.29390625 1.52367187 1.4453125 2.30859375 C3.72130621 12.78601306 7.61961237 19.41540972 16 26 C16 26.66 16 27.32 16 28 C10.0001383 26.36367408 5.91533602 22.02421477 2.6640625 16.890625 C-0.15496934 11.25256132 -0.46795916 6.22645658 0 0 Z " fill="#F0EFEF" transform="translate(6,37)"/>
<path d="M0 0 C-0.556875 0.268125 -1.11375 0.53625 -1.6875 0.8125 C-7.07195042 3.53577357 -7.07195042 3.53577357 -11 8 C-11.66 8 -12.32 8 -13 8 C-13.825 8.99 -14.65 9.98 -15.5 11 C-16.325 11.99 -17.15 12.98 -18 14 C-18.66 14 -19.32 14 -20 14 C-18.64848129 9.83645043 -16.93130608 7.65196884 -13.625 4.8125 C-12.85414062 4.13832031 -12.08328125 3.46414062 -11.2890625 2.76953125 C-7.17803309 -0.40844882 -5.10777117 -1.41882532 0 0 Z " fill="#1F1E1E" transform="translate(31,10)"/>
<path d="M0 0 C0.33 1.32 0.66 2.64 1 4 C0.47792969 3.7834375 -0.04414062 3.566875 -0.58203125 3.34375 C-7.9147448 0.56990389 -15.38194498 -0.2019553 -23 2 C-23.33 1.01 -23.66 0.02 -24 -1 C-15.94976619 -3.14672901 -7.91946564 -2.14246413 0 0 Z " fill="#DCDBDB" transform="translate(51,7)"/>
<path d="M0 0 C0 0.66 0 1.32 0 2 C-5.64399358 4.44064587 -10.97751478 4.19289099 -17 4 C-16.67 3.01 -16.34 2.02 -16 1 C-2.66666667 -1.33333333 -2.66666667 -1.33333333 0 0 Z " fill="#474545" transform="translate(49,64)"/>
<path d="M0 0 C-1.12148438 0.70576172 -1.12148438 0.70576172 -2.265625 1.42578125 C-3.74289063 2.35970703 -3.74289063 2.35970703 -5.25 3.3125 C-6.22453125 3.92738281 -7.1990625 4.54226562 -8.203125 5.17578125 C-10.54733713 6.70475759 -12.78784032 8.28820977 -15 10 C-15 7 -15 7 -13.609375 5.46484375 C-12.99578125 4.96082031 -12.3821875 4.45679688 -11.75 3.9375 C-11.14671875 3.43089844 -10.5434375 2.92429687 -9.921875 2.40234375 C-6.35177158 -0.20267074 -4.34799325 -1.55285473 0 0 Z " fill="#EBEAEA" transform="translate(29,8)"/>
<path d="M0 0 C2.125 0.375 2.125 0.375 4 1 C4.625 2.875 4.625 2.875 5 5 C4.34 5.66 3.68 6.32 3 7 C0.875 6.625 0.875 6.625 -1 6 C-1.625 4.125 -1.625 4.125 -2 2 C-1.34 1.34 -0.68 0.68 0 0 Z " fill="#D9D8D8" transform="translate(36,34)"/>
<path d="M0 0 C0.556875 0.70125 1.11375 1.4025 1.6875 2.125 C2.89907369 3.6312808 4.11587354 5.13425574 5.37890625 6.59765625 C9 10.79647436 9 10.79647436 9 13 C4.6180876 11.53936253 2.05288059 7.98797296 0 4 C0 2.68 0 1.36 0 0 Z " fill="#121211" transform="translate(10,47)"/>
<path d="M0 0 C2.72574271 0.37330824 3.80822085 0.79194601 5.703125 2.84765625 C6.21359375 3.57855469 6.7240625 4.30945313 7.25 5.0625 C8.03117187 6.16271484 8.03117187 6.16271484 8.828125 7.28515625 C9.21484375 7.85105469 9.6015625 8.41695312 10 9 C9.01 9.33 8.02 9.66 7 10 C6.01886757 8.70982586 5.04015801 7.41780894 4.0625 6.125 C3.24458984 5.04605469 3.24458984 5.04605469 2.41015625 3.9453125 C1 2 1 2 0 0 Z " fill="#141414" transform="translate(55,15)"/>
<path d="M0 0 C2 3 2 3 1.66015625 4.890625 C1.44230469 5.58671875 1.22445312 6.2828125 1 7 C0.78807905 8.58025005 0.60076629 10.16398461 0.4375 11.75 C0.31181641 12.94882812 0.31181641 12.94882812 0.18359375 14.171875 C0.12300781 14.77515625 0.06242187 15.3784375 0 16 C-0.33 16 -0.66 16 -1 16 C-1.33 11.05 -1.66 6.1 -2 1 C-1.34 0.67 -0.68 0.34 0 0 Z " fill="#959393" transform="translate(68,27)"/>
<path d="M0 0 C0.99 0 1.98 0 3 0 C6.10096154 5.45769231 6.10096154 5.45769231 5.58984375 8.203125 C5.39519531 8.79609375 5.20054688 9.3890625 5 10 C4.16121545 8.71186658 3.32913217 7.41936744 2.5 6.125 C2.0359375 5.40570312 1.571875 4.68640625 1.09375 3.9453125 C0 2 0 2 0 0 Z " fill="#E9E8E8" transform="translate(62,19)"/>
<path d="M0 0 C0.33 0.99 0.66 1.98 1 3 C-1.3125 6.1875 -1.3125 6.1875 -4 9 C-4.66 9 -5.32 9 -6 9 C-4.68775452 5.06326356 -3.08089673 2.77280706 0 0 Z " fill="#121111" transform="translate(17,15)"/>
<path d="M0 0 C0.99 0.33 1.98 0.66 3 1 C1.68 3.31 0.36 5.62 -1 8 C-1.66 7.67 -2.32 7.34 -3 7 C-1.125 2.25 -1.125 2.25 0 0 Z " fill="#E4E3E3" transform="translate(65,49)"/>
<path d="M0 0 C0.66 0 1.32 0 2 0 C1.38461538 5.53846154 1.38461538 5.53846154 -0.5625 7.875 C-1.036875 8.24625 -1.51125 8.6175 -2 9 C-2 5.20442119 -1.49821059 3.37097383 0 0 Z " fill="#201F1F" transform="translate(63,47)"/>
<path d="M0 0 C0.99 0.33 1.98 0.66 3 1 C2.34 2.32 1.68 3.64 1 5 C2.98 5 4.96 5 7 5 C7 5.33 7 5.66 7 6 C4.69 6.33 2.38 6.66 0 7 C-1.125 2.25 -1.125 2.25 0 0 Z " fill="#474545" transform="translate(10,24)"/>
<path d="M0 0 C0.99 0.33 1.98 0.66 3 1 C2.67 2.65 2.34 4.3 2 6 C-0.31 5.67 -2.62 5.34 -5 5 C-5 4.67 -5 4.34 -5 4 C-3.02 4 -1.04 4 1 4 C0.67 2.68 0.34 1.36 0 0 Z " fill="#4B4A49" transform="translate(63,25)"/>
</svg>
