<?xml version="1.0" encoding="UTF-8"?>
<svg version="1.1" xmlns="http://www.w3.org/2000/svg" width="50" height="50">
<path d="M0 0 C1.859375 0.62890625 1.859375 0.62890625 4 2 C4.81981881 3.95128107 5.56108523 5.93625111 6.25 7.9375 C8.16065919 12.20289494 8.16065919 12.20289494 11.83691406 14.85400391 C16.47774604 16.18133774 21.19816583 16.65782654 26 17 C25.69833886 20.30119736 25.41146484 21.64194285 22.86328125 23.859375 C22.02152344 24.48328125 21.17976563 25.1071875 20.3125 25.75 C17.84911365 28.03076938 16.14727897 29.64675488 15.77441406 33.07275391 C15.94521372 38.14377412 16.9046886 43.05691071 18 48 C16.3671875 48.69140625 16.3671875 48.69140625 14 49 C10.89206276 47.57588948 8.02086221 45.87664198 5.0703125 44.15234375 C2.03506528 42.69654469 2.03506528 42.69654469 -1.125 43.6796875 C-4.19821901 45.09102993 -7.13238714 46.62342482 -10.0703125 48.29296875 C-12.43705656 49.16013611 -13.65819077 48.81703122 -16 48 C-15.73960938 46.88882813 -15.47921875 45.77765625 -15.2109375 44.6328125 C-13.26488402 35.87467196 -13.26488402 35.87467196 -16.09375 27.78515625 C-18.81309527 25.1627714 -18.81309527 25.1627714 -21.7421875 22.98046875 C-22.48726562 22.32691406 -23.23234375 21.67335938 -24 21 C-24 19.68 -24 18.36 -24 17 C-22.38931641 16.90138672 -22.38931641 16.90138672 -20.74609375 16.80078125 C-13.05397354 16.25207626 -13.05397354 16.25207626 -6.57128906 12.59814453 C-4.07078099 9.01830323 -2.53337614 5.0777695 -1 1 C-0.67 0.67 -0.34 0.34 0 0 Z " fill="#000000" transform="translate(24,1)"/>
</svg>
