<?xml version="1.0" encoding="UTF-8"?>
<svg version="1.1" xmlns="http://www.w3.org/2000/svg" width="75" height="75">
<path d="M0 0 C1.3921875 -0.0309375 1.3921875 -0.0309375 2.8125 -0.0625 C5 0 5 0 7 2 C8.155 2.309375 9.31 2.61875 10.5 2.9375 C14 4 14 4 16 7 C17.2684375 7.433125 17.2684375 7.433125 18.5625 7.875 C19.366875 8.24625 20.17125 8.6175 21 9 C21.33333333 10.66666667 21.66666667 12.33333333 22 14 C22.804375 14.28875 23.60875 14.5775 24.4375 14.875 C25.7059375 15.431875 25.7059375 15.431875 27 16 C28.1875 19.5625 28.1875 19.5625 29 23 C29.66 23.33 30.32 23.66 31 24 C30.979375 25.134375 30.95875 26.26875 30.9375 27.4375 C30.58422523 30.81575674 30.58422523 30.81575674 32 32 C32.12537741 34.14307896 32.17574364 36.29078886 32.1875 38.4375 C32.20167969 39.61183594 32.21585937 40.78617188 32.23046875 41.99609375 C32 45 32 45 30 47 C29.855625 48.155 29.71125 49.31 29.5625 50.5 C29.2840625 52.2325 29.2840625 52.2325 29 54 C28.01 54.66 27.02 55.32 26 56 C25.525625 56.99 25.05125 57.98 24.5625 59 C22.85635601 62.27579645 22.1866129 62.5608845 19 64 C18.566875 64.99 18.566875 64.99 18.125 66 C16.45434478 68.97005372 14.16796523 69.07601014 11 70 C10.34 70.66 9.68 71.32 9 72 C6.67182036 72.36760731 4.3381615 72.70241581 2 73 C1.67 73.33 1.34 73.66 1 74 C-1.16480797 74.0989294 -3.33293785 74.129711 -5.5 74.125 C-6.6859375 74.12757812 -7.871875 74.13015625 -9.09375 74.1328125 C-12 74 -12 74 -13 73 C-14.670625 72.814375 -14.670625 72.814375 -16.375 72.625 C-20.18394376 71.96828556 -20.57760983 71.64260746 -23 69 C-24.2375 68.814375 -24.2375 68.814375 -25.5 68.625 C-28 68 -28 68 -29.5625 65.5625 C-30.036875 64.716875 -30.51125 63.87125 -31 63 C-31.70125 62.690625 -32.4025 62.38125 -33.125 62.0625 C-34.053125 61.5365625 -34.053125 61.5365625 -35 61 C-35.33333333 59 -35.66666667 57 -36 55 C-36.639375 54.690625 -37.27875 54.38125 -37.9375 54.0625 C-40 53 -40 53 -41.1875 49.625 C-41.455625 48.42875 -41.72375 47.2325 -42 46 C-42.17917969 45.35546875 -42.35835937 44.7109375 -42.54296875 44.046875 C-43.79453394 38.44157449 -43.06220463 32.5765743 -42 27 C-42 26.01 -42 25.02 -42 24 C-41.01 23.34 -40.02 22.68 -39 22 C-37.7811879 18.44327821 -37.7811879 18.44327821 -37 15 C-35.68 14.67 -34.36 14.34 -33 14 C-32.95875 13.236875 -32.9175 12.47375 -32.875 11.6875 C-32 9 -32 9 -29.0625 7.375 C-27.5465625 6.694375 -27.5465625 6.694375 -26 6 C-25.34 5.01 -24.68 4.02 -24 3 C-21.6859378 2.26924352 -19.35171131 1.59861742 -17 1 C-16.67 0.67 -16.34 0.34 -16 0 C-13.66666667 0 -11.33333333 0 -9 0 C-5.94077605 -1.52961198 -3.32521452 -0.50723611 0 0 Z " fill="#020202" transform="translate(43,1)"/>
<path d="M0 0 C5.69829798 3.41179606 11.03119316 8.72247862 13.09375 15.16796875 C14.75465382 23.93562451 13.57444158 31.64783002 8.6875 39.0625 C2.91205915 45.00295345 -3.12021275 47.59645107 -11.3125 47.75 C-19.15072676 47.61090829 -22.9948923 45.76882887 -28.46484375 40.375 C-34.40294197 33.96331113 -35.94103757 29.02711535 -35.73828125 20.30859375 C-35.12948618 12.65374431 -32.21676022 8.19092396 -26.58984375 3.01171875 C-19.34954573 -2.87525254 -8.53212668 -3.98273845 0 0 Z " fill="#FCFCFC" transform="translate(48.5,14.6875)"/>
</svg>
